<?xml version="1.0" encoding="UTF-8"?>
<svg version="1.1" viewBox="0 0 847 1000" width="1280" height="1280" xmlns="http://www.w3.org/2000/svg">
<path transform="translate(0)" d="m0 0h847v1e3h-847z" fill="#FBFCFB"/>
<path transform="translate(519,273)" d="m0 0h14l2 2-1 1-12 2-12 3-11 6-9 7-7 7-10 15-6 10-6 12-3 8-7 14-3 8 31 1 5 1-1 2-8 2-5 3-4 5-1 2v164l4 6 8 5 7 1-1 2h-57v-2l10-3 7-6 2-6v-159l-3-4-7 14-7 16-7 14-9 21-7 15-12 26-5 11-12 30-2 6-4-2-10-23-4-8-3-9-5-10-5-13-9-20-5-12-5-11-7-17-7-15-7-17-5-11-7-14-8-7-7-3-7-2v-1l16-1h36l9 1v2l-9 3-3 4v10l7 16 6 16 19 48 24 60v2h2l1-6 7-17 5-11 5-13 5-11 9-22 10-24 10-25-3-1 2-2 3-1 11-26 6-13 7-13 8-11 9-10 8-7 13-8 20-6z" fill="#DEC292"/>
<path transform="translate(530,369)" d="m0 0h53v3l-15 4-9 5-3 3h-2l-2 4-8 10h-2l-2 4-9 10-9 11-9 10-7 9h-2l-2 4-8 10h-2v5h2v2h2l7 8 15 16 4 4v2h2v2h2l7 9 15 16 4 4v2h2v2h2l7 8 15 16 14 15 14 11 10 7 12 7 15 6 16 3 9 1v4l-12 2h-17l-18-4-15-6-16-10-11-8v-2l-4-2-10-9-14-15v-2h-2v-2h-2l-7-8-10-10-7-8-2-4h-2v-2h-2l-7-8-7-7-7-9-5-5v-2h-2l-7-8-8-8-1-5 9-11 13-16 9-12 14-17 9-12 9-11 1-2v-6l-4-4-5-2z" fill="#DEC292"/>
</svg>
