<?xml version="1.0" encoding="UTF-8"?>
<svg version="1.1" viewBox="0 0 2048 1536" width="1280" height="1280" xmlns="http://www.w3.org/2000/svg">
<path transform="translate(1e3 403)" d="m0 0h38l22 2 5 1-1 5-5 13-2 3-14-2h-45l-36 4-29 6-27 8-25 10-17 8-18 10-24 15-14 11-14 12-11 9-14 14-9 11-11 13-9 12-10 15-12 21-10 19-10 24-8 24-6 24-5 29-2 25v38l3 31 5 28 7 26 8 22 11 25 14 26 13 20 12 16 13 15 9 11 9 9 8 7 14 12 14 11 18 12 21 12 16 8 19 9 5-10 12-30 17-40 14-36 15-36 14-34 16-40 29-70 12-30 11-27 9-21 24-60 9-21 1-1h93l16 1 16 4 13 5 13 8 11 10 9 14 5 14 2 10v17l-5 16-6 11-10 11-10 7-10 4 2 2 16 8 9 7 5 5 8 10 7 15 3 13v21l-3 12-7 14-8 10-14 10-13 6-19 5-12 2-11 1h-151l1-5 6-15 1-1 148-1 18-3 12-4 12-6 8-7 6-10 3-13v-14l-4-16-7-11-10-9-16-8-16-4-8-1-100-1-1-3 7-16 2-2 94-1 16-3 11-4 11-7 6-7 5-10 1-4v-25l-5-13-8-11-12-9-11-5-16-4-9-1h-64l-14 1-9 21-17 41-19 47-14 33-15 37-18 44-14 33-17 42-14 34-18 43-14 35-12 29-8 21-1 2-7-1-28-11-26-13-23-14-18-13-13-10-11-9-35-35-9-11-10-13-16-24-11-19-8-16-8-18-9-25-7-23-6-28-3-19-1-11-1-23v-19l1-25 4-29 6-25 6-21 9-26 8-18 8-16 10-18 18-27 10-13 9-11 12-13 20-20 11-9 16-13 24-16 24-14 23-11 26-10 26-8 26-6 26-4z" fill="#FDFDFD"/>
<path transform="translate(1092,410)" d="m0 0 12 2 33 9 27 10 18 8 15 8 17 10 18 12 16 12 11 9 14 12 20 20 9 11 13 16 13 19 9 14 13 24 10 22 10 28 8 29 5 25 3 20 1 11v55l-4 30-5 25-7 26-8 23-9 21-8 16-8 15-12 19-10 14-11 14-9 10-7 8-23 23-11 9-15 12-16 11-21 13-27 14-24 10-24 8-22 6-26 5-24 3-14 1h-36l-27-2-39-7-9-4 1-7 5-10 2-1 29 6 24 3 21 1h21l22-1 29-4 27-6 26-8 25-10 22-11 24-14 12-8 12-9 10-8 10-9 8-7 16-16 9-11 10-12 13-18 12-20 13-24 8-19 7-19 8-29 5-26 3-21 1-14v-37l-2-24-7-39-8-28-9-24-14-29-12-21-8-12-8-11-11-14-11-13-11-12-7-7-11-9-12-10-16-12-19-12-23-13-25-11-19-7-21-6-6-1-16 38-17 42-16 39-17 41-18 44-15 37-9 21-18 44-16 39-14 34-32 78-6 12h-22l-3-3-19-46-13-32-16-39-15-36-12-30-32-78-2-5v-4h22l6 12 15 38 15 37 18 44 14 36 10 24 21 53v2h3l1-5 22-54 14-34 11-27 18-44 10-24 13-33 15-36 13-32 15-37 15-36 18-45 15-37 5-14z" fill="#3AB4DF"/>
</svg>
