<?xml version="1.0" encoding="UTF-8"?>
<svg version="1.1" viewBox="0 0 2048 1537" width="1280" height="1280" xmlns="http://www.w3.org/2000/svg">
<path transform="translate(0)" d="m0 0h2048v1537h-2048z"/>
<path transform="translate(1e3 404)" d="m0 0h46l22 2 1 3-7 16-4 2-10-2h-47l-34 4-24 5-22 6-21 7-25 11-25 13-20 13-10 7-12 9-11 10-11 9-13 13-9 11-9 10-13 18-11 17-12 21-11 23-9 24-7 23-6 26-4 28-2 29v14l3 37 5 29 7 27 9 26 10 23 12 23 12 19 13 18 9 11 9 10 7 8 8 9 8 7 14 12 13 10 14 10 18 11 27 14 15 7h3l8-19 16-39 11-27 13-32 14-34 20-49 18-44 11-27 14-34 18-44 15-37 19-46 9-22 1-1h104l17 3 16 6 13 8 10 9 8 10 6 13 3 12v24l-4 13-5 10-9 10-8 7-10 5-6 1v2l5 1 14 7 13 10 8 10 8 16 3 11 1 6v15l-3 14-5 12-8 11-9 8-14 8-13 5-25 5-15 1h-146l3-9 5-12 143-1 21-3 16-5 11-6 7-6 6-10 4-18-2-17-5-12-4-6-4-5-13-9-12-5-11-3-20-2-92-1 2-6 6-14 3-1h81l21-2 14-4 12-7 5-5 4-5 4-9 2-9v-13l-2-10-5-12-11-12-11-7-16-6-11-2-85-1-3 9-11 28-15 36-11 27-19 46-15 37-8 19-16 39-17 41-18 44-16 39-28 68-12 31-9-2-27-11-24-12-17-10-12-8-14-10-14-11-14-12-25-25-9-11-10-12-13-18-13-21-12-23-7-14-10-26-8-26-6-27-4-28-2-36 1-30 2-20 4-24 6-26 12-36 9-20 13-26 15-24 10-14 20-25 33-33 14-11 17-13 17-11 24-14 23-11 29-11 24-7 27-6 19-3z" fill="#FEFEFE"/>
<path transform="translate(1092,410)" d="m0 0 18 4 25 7 25 9 20 9 25 13 16 10 12 8 17 13 11 9 12 11 22 22 9 11 12 15 16 24 10 17 10 19 11 26 10 30 7 29 5 31 1 10 1 24v15l-1 25-4 30-5 24-7 25-10 28-16 33-10 18-14 21-10 13-9 11-9 10-7 8-18 18-11 9-15 12-17 12-20 12-23 12-22 10-36 12-19 5-20 4-22 3-33 2h-12l-31-2-28-4-23-5-5-2 2-6 5-12 11 2 27 5 30 3h38l29-3 28-5 26-7 28-10 26-12 25-14 15-10 16-12 14-12 11-10 8-7 11-12 9-11 12-15 8-12 13-21 14-27 10-25 7-21 7-28 5-32 2-24v-26l-3-32-5-28-6-24-9-27-9-21-8-16-9-17-16-24-10-13-14-17-14-15-13-12-11-9-17-13-15-10-15-9-27-14-25-10-21-7-15-4-1 5-17 41-13 32-12 29-16 39-19 46-15 37-12 29-17 41-13 32-16 39-15 36-12 30-14 34-1 1h-23l-11-25-12-30-20-49-17-41-15-37-18-44-11-27-8-20h23l4 8 11 28 12 29 44 110 11 27 18 45 2 1 1-6 33-81 18-44 33-81 13-32 18-44 16-39 22-54 20-49 15-38z" fill="#16B8F4"/>
</svg>
