<?xml version="1.0" encoding="UTF-8"?>
<svg version="1.1" viewBox="0 0 2000 2000" width="1280" height="1280" xmlns="http://www.w3.org/2000/svg">
<path transform="translate(1202,537)" d="m0 0h20l2 2-1 4-32 5-18 6-17 8-14 9-13 11-9 10-10 13-11 17-9 15-16 32-16 36-9 20-4 7h75l2 1-1 4-9 1-11 2-11 7-6 9-3 7-1 5v313l2 9 6 9 7 6 11 5 14 2 2 4-1 1h-119l-1-5 19-3 11-6 6-7 4-9 1-4 1-46v-247l-1-25-4-12-2-1-2 5-13 28-13 29-15 33-17 37-9 20-16 35-16 36-15 32-12 29-7 21-3 7-4-2-11-24-14-32-16-37-17-39-18-41-34-78-19-43-15-35-9-20-6-12-8-10-10-7-14-5-14-2-1-4 3-1h120l1 4-7 2-9 2-7 6-4 9v8l6 18 20 50 17 43 27 68 25 63 15 38 5 12 2 1 6-16 16-38 10-24 17-41 30-72 17-41 10-24 1-3h-8l-1-3 3-2h9l2-6 12-29 10-24 13-28 14-24 13-18 12-14 13-13 13-10 15-9 18-8 23-7 22-4z" fill="#DBAE6D"/>
<path transform="translate(1208,732)" d="m0 0h113l3 3-2 2-4 1-20 2-15 6-11 7-16 16-9 11-9 10-9 11-11 12-9 11-11 12-9 11-9 10-9 11-9 10-9 11-11 12-7 8 2 4 7 8 8 8 7 8 8 8 7 8 7 7 7 8 7 7 7 8 8 8 7 8 8 8 7 8 8 8 7 8 16 17 7 7 7 8 8 8 7 8 8 8 7 8 14 15 19 19 11 9 15 12 18 12 15 9 17 9 24 9 21 5 14 2 16 1 2 1-1 5-21 4h-41l-18-3-21-6-20-8-23-12-12-8-14-10-13-11-8-7-10-9-19-19-7-8-15-16-12-13-7-7-7-8-10-10-7-8-45-48-8-8-7-8-45-48-5-5 1-4 14-17 22-28 12-15 10-13 13-16 22-28 8-10 11-14 13-16 5-8 1-8-4-8-7-3-11-2-1-4z" fill="#DBAF6E"/>
<path transform="translate(1e3 732)" d="m0 0h7l-2 5h-7l-1-3z" fill="#EEDABD"/>
<path transform="translate(1202,537)" d="m0 0h20l2 2-1 3-7-3-14-1z" fill="#FEFEFE"/>
<path transform="translate(1e3 1112)" d="m0 0h2l2 3 14 1v1h-17z" fill="#FEFEFE"/>
</svg>
